<svg width="56" height="56" viewBox="0 0 56 56" fill="none" xmlns="http://www.w3.org/2000/svg">
<g id="Group">
<g id="Group_2">
<path id="Vector" d="M0 17.7368C0 16.643 0 15.5493 0 14.4555C0.0320873 14.2621 0.0650494 14.0689 0.0959699 13.8753C0.394091 12.0086 0.588073 10.1175 1.01586 8.28092C1.56134 5.93913 2.52017 3.75092 4.19294 1.95592C5.6007 0.445336 7.29083 -0.290046 9.39561 0.105941C12.1367 0.621672 14.722 1.60456 17.216 2.80273C18.681 3.50661 19.5327 4.81067 19.6908 6.44188C19.8011 7.57908 19.8233 8.74093 19.7277 9.87858C19.5552 11.9322 18.4391 13.3481 16.5205 14.1173C15.6592 14.4625 14.7945 14.799 13.9326 15.1428C12.6348 15.6604 11.3381 16.1811 10.0515 16.6961C10.0515 16.8127 10.0404 16.8865 10.0538 16.9556C10.0817 17.0981 10.118 17.2394 10.1589 17.3788C10.6237 18.9689 11.4141 20.4019 12.321 21.7719C14.9928 25.8082 18.312 29.2875 21.7421 32.6695C21.7888 32.7156 21.8611 32.7359 21.9202 32.7675C21.9426 32.7307 21.9552 32.7162 21.9612 32.6994C22.0096 32.5623 22.0533 32.4233 22.105 32.2875C23.2788 29.2059 25.3486 26.9342 28.3913 25.6698C29.3293 25.2801 29.7307 24.8545 29.922 23.8215C31.0398 17.7893 36.2338 13.4005 42.3681 13.1704C48.4192 12.9436 53.8856 16.9496 55.5162 22.828C55.7292 23.5958 55.8412 24.3917 56 25.1745C56 25.9765 56 26.7787 56 27.5807C55.9669 27.6817 55.916 27.7803 55.9035 27.8837C55.1679 33.9308 50.5096 38.6417 44.4989 39.3991C44.1763 39.4398 44.0383 39.5646 43.9535 39.8795C43.4571 41.7254 42.6565 43.4422 41.5341 44.983C37.1055 51.0631 31.0983 54.3715 23.6385 55.1354C21.9216 55.3113 20.4504 54.8319 19.0936 53.8257C17.2322 52.4454 15.6904 50.7497 14.2608 48.9477C10.8038 44.5902 8.02023 39.814 5.60187 34.8211C3.48804 30.4571 1.67131 25.9764 0.610388 21.2252C0.353398 20.0743 0.200692 18.9002 0 17.7368Z" fill="white"/>
</g>
</g>
</svg>
